<?xml version="1.0" encoding="UTF-8" standalone="no"?>
<svg
   xmlns:dc="http://purl.org/dc/elements/1.1/"
   xmlns:cc="http://creativecommons.org/ns#"
   xmlns:rdf="http://www.w3.org/1999/02/22-rdf-syntax-ns#"
   xmlns:svg="http://www.w3.org/2000/svg"
   xmlns="http://www.w3.org/2000/svg"
   xmlns:xlink="http://www.w3.org/1999/xlink"
   xmlns:sodipodi="http://sodipodi.sourceforge.net/DTD/sodipodi-0.dtd"
   xmlns:inkscape="http://www.inkscape.org/namespaces/inkscape"
   version="1"
   width="450"
   height="580"
   viewBox="0 0 414.772 500.994"
   id="svg4748"
   sodipodi:docname="International_Morse_Code-EO.svg"
   inkscape:version="0.92.4 (unknown)">
  <metadata
     id="metadata4754">
    <rdf:RDF>
      <cc:Work
         rdf:about="">
        <dc:format>image/svg+xml</dc:format>
        <dc:type
           rdf:resource="http://purl.org/dc/dcmitype/StillImage" />
        <dc:title></dc:title>
      </cc:Work>
    </rdf:RDF>
  </metadata>
  <defs
     id="defs4752" />
  <sodipodi:namedview
     pagecolor="#ffffff"
     bordercolor="#666666"
     borderopacity="1"
     objecttolerance="10"
     gridtolerance="10"
     guidetolerance="10"
     inkscape:pageopacity="0"
     inkscape:pageshadow="2"
     inkscape:window-width="1853"
     inkscape:window-height="1025"
     id="namedview4750"
     showgrid="false"
     inkscape:zoom="2.3017545"
     inkscape:cx="328.50286"
     inkscape:cy="418.19103"
     inkscape:window-x="67"
     inkscape:window-y="27"
     inkscape:window-maximized="1"
     inkscape:current-layer="svg4748" />
  <text
     x="47.249001"
     y="10.538"
     font-size="22"
     id="text4429"
     style="font-style:normal;font-variant:normal;font-weight:normal;font-stretch:normal;font-size:22px;font-family:sans;-inkscape-font-specification:sans">Internacia Morze kodo</text>
  <text
     x="54.052"
     y="38.502"
     font-size="10"
     font-family="sans-serif"
     id="text4433"
     style="-inkscape-font-specification:sans;font-family:sans;font-weight:normal;font-style:normal;font-stretch:normal;font-variant:normal;">
    <tspan
       x="54.052"
       y="38.502"
       id="tspan4431"
       style="-inkscape-font-specification:sans;font-family:sans;font-weight:normal;font-style:normal;font-stretch:normal;font-variant:normal;" />
  </text>
  <text
     x="54.052"
     y="38.502"
     font-size="10"
     font-family="sans-serif"
     id="text4435"
     style="-inkscape-font-specification:sans;font-family:sans;font-weight:normal;font-style:normal;font-stretch:normal;font-variant:normal;" />
  <g
     id="g4746">
    <g
       transform="translate(-22.25)"
       id="g4495">
      <circle
         cx="39.4"
         cy="141.48"
         r="3.555"
         transform="matrix(1.29636 0 0 1.29636 202.386 -57.34)"
         id="circle4449" />
      <path
         d="M285.732 121.457h27.651v9.217h-27.651z"
         id="path4451" />
      <circle
         cx="39.4"
         cy="141.48"
         r="3.555"
         transform="matrix(1.29636 0 0 1.29636 220.82 -57.34)"
         id="circle4453" />
      <circle
         cx="39.4"
         cy="141.48"
         r="3.555"
         transform="matrix(1.29636 0 0 1.29636 202.386 -38.906)"
         id="circle4455" />
      <circle
         cx="39.4"
         cy="141.48"
         r="3.555"
         transform="matrix(1.29636 0 0 1.29636 220.82 -38.906)"
         id="circle4457" />
      <circle
         cx="39.4"
         cy="141.48"
         r="3.555"
         transform="matrix(1.29636 0 0 1.29636 239.255 -38.906)"
         id="circle4459" />
      <path
         d="M304.166 139.891h27.651v9.217h-27.651z"
         id="path4461" />
      <circle
         cx="39.4"
         cy="141.48"
         r="3.555"
         transform="matrix(1.29636 0 0 1.29636 202.386 -20.472)"
         id="circle4463" />
      <path
         d="M267.298 158.325h27.651v9.217h-27.651zM304.166 158.325h27.651v9.217h-27.651zM248.863 176.76h27.651v9.217h-27.651z"
         id="path4465" />
      <circle
         cx="39.4"
         cy="141.48"
         r="3.555"
         transform="matrix(1.29636 0 0 1.29636 239.255 -2.038)"
         id="circle4467" />
      <circle
         cx="39.4"
         cy="141.48"
         r="3.555"
         transform="matrix(1.29636 0 0 1.29636 257.689 -2.038)"
         id="circle4469" />
      <path
         d="M322.6 176.76h27.651v9.217H322.6zM248.863 195.194h27.651v9.217h-27.651zM304.166 195.194h27.651v9.217h-27.651zM341.035 195.194h27.651v9.217h-27.651z"
         id="path4471" />
      <circle
         cx="39.4"
         cy="141.48"
         r="3.555"
         transform="matrix(1.29636 0 0 1.29636 239.255 16.397)"
         id="circle4473" />
      <path
         d="M248.863 213.628h27.651v9.217h-27.651zM285.732 213.628h27.651v9.217h-27.651z"
         id="path4475" />
      <circle
         cx="39.4"
         cy="141.48"
         r="3.555"
         transform="matrix(1.29636 0 0 1.29636 276.123 34.831)"
         id="circle4477" />
      <circle
         cx="39.4"
         cy="141.48"
         r="3.555"
         transform="matrix(1.29636 0 0 1.29636 294.557 34.831)"
         id="circle4479" />
      <g
         font-size="18"
         font-family="sans-serif"
         id="g4493"
         style="">
        <text
           x="231.225"
           y="130.674"
           transform="translate(-1.85)"
           id="text4481"
           style="">U</text>
        <text
           x="231.748"
           y="149.108"
           transform="translate(-1.85)"
           id="text4483"
           style="">V</text>
        <text
           x="229.155"
           y="167.318"
           transform="translate(-1.85)"
           id="text4485"
           style="">W</text>
        <text
           x="231.734"
           y="185.977"
           transform="translate(-1.85)"
           id="text4487"
           style="">X</text>
        <text
           x="231.761"
           y="204.411"
           transform="translate(-1.85)"
           id="text4489"
           style="">Y</text>
        <text
           x="232.279"
           y="222.846"
           transform="translate(-1.85)"
           id="text4491"
           style="">Z</text>
      </g>
    </g>
    <g
       transform="translate(-3.816)"
       id="g4637">
      <circle
         cx="39.4"
         cy="141.48"
         r="3.555"
         transform="matrix(1.29636 0 0 1.29636 -9.609 -57.34)"
         id="c" />
      <path
         id="a"
         d="M55.303 121.457h27.651v9.217H55.303z" />
      <circle
         cx="39.4"
         cy="141.48"
         r="3.555"
         transform="matrix(1.29636 0 0 1.29636 27.496 -38.906)"
         id="circle4499" />
      <circle
         cx="39.4"
         cy="141.48"
         r="3.555"
         transform="matrix(1.29636 0 0 1.29636 45.694 -38.611)"
         id="circle4501" />
      <circle
         cx="39.4"
         cy="141.48"
         r="3.555"
         transform="matrix(1.29636 0 0 1.29636 64.123 -38.906)"
         id="circle4503" />
      <path
         d="M36.869 158.325H64.52v9.217H36.869z"
         id="path4505" />
      <circle
         cx="39.4"
         cy="141.48"
         r="3.555"
         transform="matrix(1.29636 0 0 1.29636 27.231 -20.472)"
         id="circle4507" />
      <path
         d="M92.172 158.325h27.651v9.217H92.172z"
         id="path4509" />
      <circle
         cx="39.4"
         cy="141.48"
         r="3.555"
         transform="matrix(1.29636 0 0 1.29636 82.624 -20.472)"
         id="circle4511" />
      <path
         d="M36.869 176.76H64.52v9.217H36.869z"
         id="path4513" />
      <circle
         cx="39.4"
         cy="141.48"
         r="3.555"
         transform="matrix(1.29636 0 0 1.29636 27.172 -2.038)"
         id="circle4515" />
      <circle
         cx="39.4"
         cy="141.48"
         r="3.555"
         transform="matrix(1.29636 0 0 1.29636 45.694 -1.86)"
         id="circle4517" />
      <circle
         cx="39.4"
         cy="141.48"
         r="3.555"
         transform="matrix(1.29636 0 0 1.29636 -9.609 16.397)"
         id="circle4519" />
      <circle
         cx="39.4"
         cy="141.48"
         r="3.555"
         transform="matrix(1.29636 0 0 1.29636 -9.609 34.831)"
         id="circle4521" />
      <circle
         cx="39.4"
         cy="141.48"
         r="3.555"
         transform="matrix(1.29636 0 0 1.29636 8.826 34.831)"
         id="circle4523" />
      <path
         d="M73.737 213.628h27.651v9.217H73.737z"
         id="path4525" />
      <circle
         cx="39.4"
         cy="141.48"
         r="3.555"
         transform="matrix(1.29636 0 0 1.29636 64.129 34.831)"
         id="circle4527" />
      <path
         d="M36.869 232.063H64.52v9.217H36.869zM73.737 232.063h27.651v9.217H73.737z"
         id="path4529" />
      <circle
         cx="39.4"
         cy="141.48"
         r="3.555"
         transform="matrix(1.29636 0 0 1.29636 64.129 53.265)"
         id="circle4531" />
      <circle
         cx="39.4"
         cy="141.48"
         r="3.555"
         transform="matrix(1.29636 0 0 1.29636 -9.609 71.7)"
         id="circle4533" />
      <circle
         cx="39.4"
         cy="141.48"
         r="3.555"
         transform="matrix(1.29636 0 0 1.29636 8.826 71.7)"
         id="circle4535" />
      <circle
         cx="39.4"
         cy="141.48"
         r="3.555"
         transform="matrix(1.29636 0 0 1.29636 27.26 71.7)"
         id="circle4537" />
      <circle
         cx="39.4"
         cy="141.48"
         r="3.555"
         transform="matrix(1.29636 0 0 1.29636 45.694 71.7)"
         id="circle4539" />
      <circle
         cx="39.4"
         cy="141.48"
         r="3.555"
         transform="matrix(1.29636 0 0 1.29636 -9.609 90.134)"
         id="circle4541" />
      <circle
         cx="39.4"
         cy="141.48"
         r="3.555"
         transform="matrix(1.29636 0 0 1.29636 8.826 90.134)"
         id="circle4543" />
      <circle
         cx="39.4"
         cy="141.48"
         r="3.555"
         transform="matrix(1.29636 0 0 1.29636 -9.609 108.568)"
         id="circle4545" />
      <path
         d="M55.303 287.366h27.651v9.217H55.303zM92.172 287.366h27.651v9.217H92.172zM129.04 287.366h27.651v9.217H129.04zM36.869 305.8H64.52v9.217H36.869z"
         id="path4547" />
      <circle
         cx="39.4"
         cy="141.48"
         r="3.555"
         transform="matrix(1.29636 0 0 1.29636 27.26 127.003)"
         id="circle4549" />
      <path
         d="M92.172 305.8h27.651v9.217H92.172z"
         id="path4551" />
      <circle
         cx="39.4"
         cy="141.48"
         r="3.555"
         transform="matrix(1.29636 0 0 1.29636 -9.609 145.437)"
         id="circle4553" />
      <path
         d="M55.303 324.234h27.651v9.217H55.303z"
         id="path4555" />
      <circle
         cx="39.4"
         cy="141.48"
         r="3.555"
         transform="matrix(1.29636 0 0 1.29636 45.694 145.437)"
         id="circle4557" />
      <circle
         cx="39.4"
         cy="141.48"
         r="3.555"
         transform="matrix(1.29636 0 0 1.29636 64.129 145.437)"
         id="circle4559" />
      <path
         d="M36.869 342.669H64.52v9.217H36.869zM73.737 342.669h27.651v9.217H73.737zM36.869 361.103H64.52v9.217H36.869z"
         id="path4561" />
      <circle
         cx="39.4"
         cy="141.48"
         r="3.555"
         transform="matrix(1.29636 0 0 1.29636 27.26 182.306)"
         id="circle4563" />
      <path
         d="M36.869 379.537H64.52v9.217H36.869zM73.737 379.537h27.651v9.217H73.737zM110.606 379.537h27.651v9.217h-27.651z"
         id="path4565" />
      <circle
         cx="39.4"
         cy="141.48"
         r="3.555"
         transform="matrix(1.29636 0 0 1.29636 -9.609 219.174)"
         id="circle4567" />
      <path
         d="M55.303 397.971h27.651v9.217H55.303zM92.172 397.971h27.651v9.217H92.172z"
         id="path4569" />
      <circle
         cx="39.4"
         cy="141.48"
         r="3.555"
         transform="matrix(1.29636 0 0 1.29636 82.563 219.174)"
         id="circle4571" />
      <path
         d="M36.869 416.406H64.52v9.217H36.869zM73.737 416.406h27.651v9.217H73.737z"
         id="path4573" />
      <circle
         cx="39.4"
         cy="141.48"
         r="3.555"
         transform="matrix(1.29636 0 0 1.29636 64.129 237.609)"
         id="circle4575" />
      <path
         d="M129.04 416.406h27.651v9.217H129.04z"
         id="path4577" />
      <circle
         cx="39.4"
         cy="141.48"
         r="3.555"
         transform="matrix(1.29636 0 0 1.29636 -9.609 256.043)"
         id="circle4579" />
      <path
         d="M55.303 434.84h27.651v9.217H55.303z"
         id="path4581" />
      <circle
         cx="39.4"
         cy="141.48"
         r="3.555"
         transform="matrix(1.29636 0 0 1.29636 45.694 256.043)"
         id="circle4583" />
      <circle
         cx="39.4"
         cy="141.48"
         r="3.555"
         transform="matrix(1.29636 0 0 1.29636 27.26 274.477)"
         id="circle4585" />
      <circle
         cx="39.4"
         cy="141.48"
         r="3.555"
         transform="matrix(1.29636 0 0 1.29636 8.826 274.477)"
         id="circle4587" />
      <circle
         cx="39.4"
         cy="141.48"
         r="3.555"
         transform="matrix(1.29636 0 0 1.29636 -9.609 274.477)"
         id="circle4589" />
      <path
         d="M36.869 471.709H64.52v9.217H36.869z"
         id="path4591" />
      <g
         font-size="18"
         font-family="sans-serif"
         id="g4633"
         style="">
        <text
           x="17.138"
           y="130.674"
           id="text4593"
           style="">A</text>
        <text
           x="16.954"
           y="149.108"
           id="text4595"
           style="">B</text>
        <text
           x="16.535"
           y="167.318"
           id="text4597"
           style="">C</text>
        <text
           x="16.409"
           y="185.977"
           id="text4599"
           style="">D</text>
        <text
           x="16.904"
           y="204.411"
           id="text4601"
           style="">E</text>
        <text
           x="17.323"
           y="222.846"
           id="text4603"
           style="">F</text>
        <text
           x="16.202"
           y="241.055"
           id="text4605"
           style="">G</text>
        <text
           x="16.634"
           y="259.714"
           id="text4607"
           style="">H</text>
        <text
           x="20.694"
           y="278.148"
           id="text4609"
           style="">I</text>
        <text
           x="19.145"
           y="296.583"
           id="text4611"
           style="">J</text>
        <text
           x="16.481"
           y="315.017"
           id="text4613"
           style="">K</text>
        <text
           x="17.813"
           y="333.451"
           id="text4615"
           style="">L</text>
        <text
           x="15.621"
           y="351.886"
           id="text4617"
           style="">M</text>
        <text
           x="16.684"
           y="370.32"
           id="text4619"
           style="">N</text>
        <text
           x="16.085"
           y="388.754"
           id="text4621"
           style="">O</text>
        <text
           x="16.058"
           y="425.623"
           id="text4623"
           style="">Q</text>
        <text
           x="16.828"
           y="407.189"
           id="text4625"
           style="">P</text>
        <text
           x="16.022"
           y="444.057"
           id="text4627"
           style="">R</text>
        <text
           x="17.206"
           y="462.492"
           id="text4629"
           style="">S</text>
        <text
           x="17.624"
           y="480.926"
           id="text4631"
           style="">T</text>
      </g>
      <use
         transform="translate(-18.434 18.434)"
         width="414.772"
         height="500.994"
         xlink:href="#a"
         id="use4635" />
    </g>
    <g
       transform="translate(-22.25 64.295)"
       id="g4744">
      <use
         transform="translate(211.995 119.823)"
         id="z"
         width="414.772"
         height="500.994"
         xlink:href="#a" />
      <use
         transform="translate(248.863 119.823)"
         id="b"
         width="414.772"
         height="500.994"
         xlink:href="#a" />
      <use
         id="A"
         width="414.772"
         height="500.994"
         xlink:href="#b" />
      <use
         transform="translate(285.732 119.823)"
         id="B"
         width="414.772"
         height="500.994"
         xlink:href="#a" />
      <use
         transform="translate(322.6 119.823)"
         id="C"
         width="414.772"
         height="500.994"
         xlink:href="#a" />
      <use
         transform="translate(211.995 119.823)"
         width="414.772"
         height="500.994"
         xlink:href="#c"
         id="use4644" />
      <use
         transform="translate(211.995 138.257)"
         width="414.772"
         height="500.994"
         xlink:href="#c"
         id="use4646" />
      <use
         transform="translate(230.429 138.257)"
         width="414.772"
         height="500.994"
         xlink:href="#c"
         id="use4648" />
      <use
         transform="translate(230.429 138.257)"
         id="f"
         width="414.772"
         height="500.994"
         xlink:href="#a" />
      <use
         transform="translate(267.298 138.257)"
         width="414.772"
         height="500.994"
         xlink:href="#a"
         id="use4651" />
      <use
         transform="translate(304.166 138.257)"
         width="414.772"
         height="500.994"
         xlink:href="#a"
         id="use4653" />
      <use
         transform="translate(211.995 156.692)"
         id="d"
         width="414.772"
         height="500.994"
         xlink:href="#c" />
      <use
         transform="translate(18.434)"
         id="e"
         width="414.772"
         height="500.994"
         xlink:href="#d" />
      <use
         transform="translate(18.434)"
         id="q"
         width="414.772"
         height="500.994"
         xlink:href="#e" />
      <use
         transform="translate(18.434 18.434)"
         id="g"
         width="414.772"
         height="500.994"
         xlink:href="#f" />
      <use
         transform="translate(36.869)"
         id="r"
         width="414.772"
         height="500.994"
         xlink:href="#g" />
      <use
         transform="translate(0 18.434)"
         id="h"
         width="414.772"
         height="500.994"
         xlink:href="#d" />
      <use
         transform="translate(18.434)"
         id="i"
         width="414.772"
         height="500.994"
         xlink:href="#h" />
      <use
         transform="translate(18.434)"
         id="j"
         width="414.772"
         height="500.994"
         xlink:href="#i" />
      <use
         transform="translate(18.434)"
         id="o"
         width="414.772"
         height="500.994"
         xlink:href="#j" />
      <use
         transform="translate(18.434 18.434)"
         id="p"
         width="414.772"
         height="500.994"
         xlink:href="#g" />
      <use
         transform="translate(0 18.434)"
         id="k"
         width="414.772"
         height="500.994"
         xlink:href="#h" />
      <use
         transform="translate(18.434)"
         id="l"
         width="414.772"
         height="500.994"
         xlink:href="#k" />
      <use
         transform="translate(18.434)"
         id="m"
         width="414.772"
         height="500.994"
         xlink:href="#l" />
      <use
         transform="translate(18.434)"
         id="n"
         width="414.772"
         height="500.994"
         xlink:href="#m" />
      <use
         transform="translate(18.434)"
         width="414.772"
         height="500.994"
         xlink:href="#n"
         id="use4669" />
      <use
         transform="translate(36.869 36.869)"
         width="414.772"
         height="500.994"
         xlink:href="#h"
         id="use4671" />
      <use
         transform="translate(36.869 36.869)"
         width="414.772"
         height="500.994"
         xlink:href="#i"
         id="use4673" />
      <use
         transform="translate(36.869 36.869)"
         width="414.772"
         height="500.994"
         xlink:href="#j"
         id="use4675" />
      <use
         transform="translate(36.869 36.869)"
         width="414.772"
         height="500.994"
         xlink:href="#o"
         id="use4677" />
      <use
         transform="translate(-73.737 36.869)"
         width="414.772"
         height="500.994"
         xlink:href="#p"
         id="use4679" />
      <use
         width="414.772"
         height="500.994"
         xlink:href="#d"
         id="use4681" />
      <use
         width="414.772"
         height="500.994"
         xlink:href="#e"
         id="use4683" />
      <use
         width="414.772"
         height="500.994"
         xlink:href="#q"
         id="use4685" />
      <use
         id="s"
         width="414.772"
         height="500.994"
         xlink:href="#g" />
      <use
         id="t"
         width="414.772"
         height="500.994"
         xlink:href="#r" />
      <use
         transform="translate(73.737 73.737)"
         id="u"
         width="414.772"
         height="500.994"
         xlink:href="#d" />
      <use
         transform="translate(73.737 73.737)"
         id="v"
         width="414.772"
         height="500.994"
         xlink:href="#e" />
      <use
         transform="translate(73.737 73.737)"
         width="414.772"
         height="500.994"
         xlink:href="#q"
         id="use4691" />
      <use
         transform="translate(-55.303 73.737)"
         id="w"
         width="414.772"
         height="500.994"
         xlink:href="#s" />
      <use
         transform="translate(-55.303 73.737)"
         id="x"
         width="414.772"
         height="500.994"
         xlink:href="#t" />
      <use
         transform="translate(36.869 18.434)"
         width="414.772"
         height="500.994"
         xlink:href="#u"
         id="use4695" />
      <use
         transform="translate(36.869 18.434)"
         id="E"
         width="414.772"
         height="500.994"
         xlink:href="#v" />
      <use
         transform="translate(36.869 18.434)"
         id="y"
         width="414.772"
         height="500.994"
         xlink:href="#w" />
      <use
         transform="translate(36.869 18.434)"
         width="414.772"
         height="500.994"
         xlink:href="#x"
         id="use4699" />
      <use
         transform="translate(-36.869)"
         width="414.772"
         height="500.994"
         xlink:href="#y"
         id="use4701" />
      <use
         transform="translate(-18.434 147.475)"
         id="F"
         width="414.772"
         height="500.994"
         xlink:href="#z" />
      <use
         transform="translate(-18.434 147.475)"
         id="G"
         width="414.772"
         height="500.994"
         xlink:href="#b" />
      <use
         transform="translate(-18.434 147.475)"
         id="H"
         width="414.772"
         height="500.994"
         xlink:href="#A" />
      <use
         transform="translate(-18.434 147.475)"
         id="I"
         width="414.772"
         height="500.994"
         xlink:href="#B" />
      <use
         transform="translate(-18.434 147.475)"
         id="D"
         width="414.772"
         height="500.994"
         xlink:href="#C" />
      <use
         transform="translate(-110.606 18.434)"
         width="414.772"
         height="500.994"
         xlink:href="#D"
         id="use4708" />
      <use
         transform="translate(18.434 18.434)"
         width="414.772"
         height="500.994"
         xlink:href="#E"
         id="use4710" />
      <use
         transform="translate(36.869 18.434)"
         width="414.772"
         height="500.994"
         xlink:href="#F"
         id="use4712" />
      <use
         transform="translate(36.869 18.434)"
         width="414.772"
         height="500.994"
         xlink:href="#G"
         id="use4714" />
      <use
         transform="translate(36.869 18.434)"
         width="414.772"
         height="500.994"
         xlink:href="#H"
         id="use4716" />
      <use
         transform="translate(36.869 18.434)"
         width="414.772"
         height="500.994"
         xlink:href="#I"
         id="use4718" />
      <use
         transform="translate(36.869 18.434)"
         width="414.772"
         height="500.994"
         xlink:href="#D"
         id="use4720" />
      <g
         font-size="18"
         font-family="sans-serif"
         id="g4742"
         style="">
        <text
           x="231.757"
           y="250.497"
           id="text4722"
           style="">1</text>
        <text
           x="231.284"
           y="268.931"
           id="text4724"
           style="">2</text>
        <text
           x="231.099"
           y="287.141"
           id="text4726"
           style="">3</text>
        <text
           x="231.397"
           y="305.8"
           id="text4728"
           style="">4</text>
        <text
           x="231.054"
           y="324.234"
           id="text4730"
           style="">5</text>
        <text
           x="231.144"
           y="342.669"
           id="text4732"
           style="">6</text>
        <text
           x="231.05"
           y="360.878"
           id="text4734"
           style="">7</text>
        <text
           x="231.099"
           y="379.537"
           id="text4736"
           style="">8</text>
        <text
           x="231.09"
           y="397.971"
           id="text4738"
           style="">9</text>
        <text
           x="231.126"
           y="416.406"
           id="text4740"
           style="">0</text>
      </g>
    </g>
  </g>
  <flowRoot
     xml:space="preserve"
     id="flowRoot4764"
     style="fill:black;fill-opacity:1;stroke:none;font-family:sans;font-style:normal;font-weight:normal;font-size:40px;line-height:1.25;letter-spacing:0px;word-spacing:0px;-inkscape-font-specification:sans;font-stretch:normal;font-variant:normal;"><flowRegion
       id="flowRegion4766"
       style="-inkscape-font-specification:sans;font-family:sans;font-weight:normal;font-style:normal;font-stretch:normal;font-variant:normal;"><rect
         id="rect4768"
         width="58.216461"
         height="43.445122"
         x="-93.407005"
         y="87.766792"
         style="-inkscape-font-specification:sans;font-family:sans;font-weight:normal;font-style:normal;font-stretch:normal;font-variant:normal;" /></flowRegion><flowPara
       id="flowPara4770"></flowPara></flowRoot>  <text
     xml:space="preserve"
     style="font-style:normal;font-weight:normal;font-size:10.13887119px;line-height:1.25;font-family:sans-serif;letter-spacing:0px;word-spacing:0px;fill:#000000;fill-opacity:1;stroke:none;stroke-width:0.92171556"
     x="53.258575"
     y="41.270401"
     id="text4786"><tspan
       sodipodi:role="line"
       id="tspan4784"
       x="53.258575"
       y="41.270401"
       style="stroke-width:0.92171556">1. Kurta ekbrilo estas punkto</tspan><tspan
       sodipodi:role="line"
       x="53.258575"
       y="53.943989"
       style="stroke-width:0.92171556"
       id="tspan4788">2. Longa ekbrilo estas streko</tspan><tspan
       sodipodi:role="line"
       x="53.258575"
       y="66.617577"
       style="stroke-width:0.92171556"
       id="tspan4790">3. Inter literoj estas longa paŭzo</tspan><tspan
       sodipodi:role="line"
       x="53.258575"
       y="79.291161"
       style="stroke-width:0.92171556"
       id="tspan4792">4. Antaŭ ĉiu ripeto estas ege longa paŭzo</tspan></text>
</svg>
