<?xml version="1.0" encoding="UTF-8" standalone="no"?>
<svg
   xmlns:dc="http://purl.org/dc/elements/1.1/"
   xmlns:cc="http://creativecommons.org/ns#"
   xmlns:rdf="http://www.w3.org/1999/02/22-rdf-syntax-ns#"
   xmlns:svg="http://www.w3.org/2000/svg"
   xmlns="http://www.w3.org/2000/svg"
   xmlns:sodipodi="http://sodipodi.sourceforge.net/DTD/sodipodi-0.dtd"
   xmlns:inkscape="http://www.inkscape.org/namespaces/inkscape"
   viewBox="0 0 700 348"
   stroke-miterlimit="10"
   width="700"
   height="348"
   fill="none"
   stroke-linecap="square"
   version="1.1"
   id="svg5134"
   sodipodi:docname="SimonComponent_ColourLegend-EO.svg"
   inkscape:version="0.92.4 (unknown)">
  <metadata
     id="metadata5140">
    <rdf:RDF>
      <cc:Work
         rdf:about="">
        <dc:format>image/svg+xml</dc:format>
        <dc:type
           rdf:resource="http://purl.org/dc/dcmitype/StillImage" />
        <dc:title></dc:title>
      </cc:Work>
    </rdf:RDF>
  </metadata>
  <defs
     id="defs5138" />
  <sodipodi:namedview
     pagecolor="#ffffff"
     bordercolor="#666666"
     borderopacity="1"
     objecttolerance="10"
     gridtolerance="10"
     guidetolerance="10"
     inkscape:pageopacity="0"
     inkscape:pageshadow="2"
     inkscape:window-width="1853"
     inkscape:window-height="1025"
     id="namedview5136"
     showgrid="false"
     inkscape:zoom="1.9542857"
     inkscape:cx="377.13214"
     inkscape:cy="153.71472"
     inkscape:window-x="67"
     inkscape:window-y="27"
     inkscape:window-maximized="1"
     inkscape:current-layer="g5132" />
  <clipPath
     id="a">
    <path
       d="M0 0h700v348H0V0z"
       id="path5061" />
  </clipPath>
  <g
     clip-path="url(#a)"
     transform="translate(-2.248)"
     id="g5132">
    <path
       d="M23.795 1.16h700v348h-700z"
       fill="none"
       id="path5064" />
    <path
       d="M170.154 1.16h357.292v347.97H170.154z"
       fill="#fff"
       id="path5066" />
    <path
       d="M181.233 6.937h336.914v337.669H181.233z"
       fill="none"
       id="path5068" />
    <path
       d="M181.233 6.937h336.914v337.669H181.233z"
       stroke="#000"
       stroke-width="2"
       stroke-linecap="butt"
       stroke-linejoin="round"
       id="path5070" />
    <path
       d="M458.889 41.715c0-8.376 6.966-15.166 15.559-15.166 4.126 0 8.084 1.598 11.002 4.442 2.918 2.844 4.557 6.702 4.557 10.724 0 8.375-6.966 15.165-15.56 15.165-8.592 0-15.558-6.79-15.558-15.165z"
       fill="#fff"
       id="path5072" />
    <path
       d="M458.889 41.715c0-8.376 6.966-15.166 15.559-15.166 4.126 0 8.084 1.598 11.002 4.442 2.918 2.844 4.557 6.702 4.557 10.724 0 8.375-6.966 15.165-15.56 15.165-8.592 0-15.558-6.79-15.558-15.165z"
       stroke="#000"
       stroke-width="2"
       stroke-linecap="butt"
       stroke-linejoin="round"
       id="path5074" />
    <path
       d="M297.417 123.205l52.567-52.567 52.567 52.567-52.567 52.567z"
       fill="none"
       id="path5076" />
    <path
       d="M297.417 123.205l52.567-52.567 52.567 52.567-52.567 52.567z"
       stroke="#000"
       stroke-width="2"
       stroke-linecap="butt"
       stroke-linejoin="round"
       id="path5078" />
    <path
       d="M244.556 176.226l52.567-52.567 52.567 52.567-52.567 52.567z"
       fill="none"
       id="path5080" />
    <path
       d="M244.556 176.226l52.567-52.567 52.567 52.567-52.567 52.567z"
       stroke="#000"
       stroke-width="2"
       stroke-linecap="butt"
       stroke-linejoin="round"
       id="path5082" />
    <path
       d="M297.417 228.34l52.567-52.568 52.567 52.567-52.567 52.567z"
       fill="none"
       id="path5084" />
    <path
       d="M297.417 228.34l52.567-52.568 52.567 52.567-52.567 52.567z"
       stroke="#000"
       stroke-width="2"
       stroke-linecap="butt"
       stroke-linejoin="round"
       id="path5086" />
    <path
       d="M349.69 176.226l52.567-52.567 52.567 52.567-52.567 52.567z"
       fill="none"
       id="path5088" />
    <path
       d="M349.69 176.226l52.567-52.567 52.567 52.567-52.567 52.567z"
       stroke="#000"
       stroke-width="2"
       stroke-linecap="butt"
       stroke-linejoin="round"
       id="path5090" />
    <path
       d="M502.446 62.053h95.874v61.606h-95.874zM502.446 144.97h140.346v61.605H502.446zM26.02 143.533h105.134v65.386H26.021zM18.795 224.793h113.354v65.386H18.795zM164.15 257.486h154.645"
       fill="none"
       id="path5092" />
    <path
       d="M164.15 257.486h142.645"
       stroke="#000"
       stroke-width="2"
       stroke-linecap="butt"
       stroke-linejoin="round"
       id="path5094" />
    <path
       d="M306.795 260.79l9.076-3.304-9.076-3.303z"
       fill="#000"
       fill-rule="evenodd"
       stroke="#000"
       stroke-width="2"
       stroke-linecap="butt"
       id="path5096" />
    <path
       d="M534.446 92.856H388.02"
       fill="none"
       id="path5098" />
    <path
       d="M534.446 92.856H400.02"
       stroke="#000"
       stroke-width="2"
       stroke-linecap="butt"
       stroke-linejoin="round"
       id="path5100" />
    <path
       d="M400.02 89.553l-9.076 3.303 9.077 3.304z"
       fill="#000"
       fill-rule="evenodd"
       stroke="#000"
       stroke-width="2"
       stroke-linecap="butt"
       id="path5102" />
    <path
       d="M534.446 175.772h-68.473"
       fill="none"
       id="path5104" />
    <path
       d="M534.446 175.772h-56.473"
       stroke="#000"
       stroke-width="2"
       stroke-linecap="butt"
       stroke-linejoin="round"
       id="path5106" />
    <path
       d="M477.973 172.469l-9.076 3.303 9.076 3.304z"
       fill="#000"
       fill-rule="evenodd"
       stroke="#000"
       stroke-width="2"
       stroke-linecap="butt"
       id="path5108" />
    <path
       d="M163.154 176.226h72.19"
       fill="none"
       id="path5110" />
    <path
       d="M163.154 176.226h60.19"
       stroke="#000"
       stroke-width="2"
       stroke-linecap="butt"
       stroke-linejoin="round"
       id="path5112" />
    <path
       d="M223.343 179.53l9.077-3.304-9.077-3.303z"
       fill="#000"
       fill-rule="evenodd"
       stroke="#000"
       stroke-width="2"
       stroke-linecap="butt"
       id="path5114" />
    <text
       style="font-weight:400;font-size:35px;line-height:100%;font-family:'Special Elite';-inkscape-font-specification:'Special Elite, Normal';text-align:start;letter-spacing:0;word-spacing:0;fill:#000000;stroke-linecap:butt"
       x="71.073769"
       y="187.10239"
       font-weight="400"
       font-size="35"
       letter-spacing="0"
       word-spacing="0"
       id="text5118">
      <tspan
         x="71.073769"
         y="187.10239"
         style="line-height:100%;font-family:sans-serif;-inkscape-font-specification:sans-serif;text-align:start"
         id="tspan5116">Ruĝa</tspan>
    </text>
    <text
       style="font-weight:400;font-size:40px;line-height:125%;font-family:sans-serif;letter-spacing:0;word-spacing:0;fill:#000000;stroke-linecap:butt"
       x="59.209286"
       y="264.66812"
       font-weight="400"
       font-size="40"
       letter-spacing="0"
       word-spacing="0"
       id="text5122">
      <tspan
         x="59.209286"
         y="264.66812"
         style="font-size:35px;-inkscape-font-specification:sans-serif"
         font-size="35"
         id="tspan5120">Verda</tspan>
    </text>
    <text
       style="font-weight:400;font-size:40px;line-height:125%;font-family:sans-serif;letter-spacing:0;word-spacing:0;fill:#000000;stroke-linecap:butt"
       x="535.73816"
       y="187.0717"
       font-weight="400"
       font-size="40"
       letter-spacing="0"
       word-spacing="0"
       id="text5126">
      <tspan
         x="535.73816"
         y="187.0717"
         style="font-size:35px;-inkscape-font-specification:sans-serif"
         font-size="35"
         id="tspan5124">Flava</tspan>
    </text>
    <text
       style="font-weight:400;font-size:40px;line-height:125%;font-family:sans-serif;letter-spacing:0;word-spacing:0;fill:#000000;stroke-linecap:butt"
       x="537.40894"
       y="103.14"
       font-weight="400"
       font-size="40"
       letter-spacing="0"
       word-spacing="0"
       id="text5130">
      <tspan
         x="537.40894"
         y="103.14"
         style="font-size:35px;-inkscape-font-specification:sans-serif"
         font-size="35"
         id="tspan5128">Blua</tspan>
    </text>
  </g>
</svg>
